<svg width="74" height="74" viewBox="0 0 74 74" fill="none" xmlns="http://www.w3.org/2000/svg">
<g filter="url(#filter0_d)">
<rect x="5" y="1" width="64" height="64" rx="32" fill="black"/>
<path fill-rule="evenodd" clip-rule="evenodd" d="M43.4401 22.3333H47.6668C49.1335 22.3333 50.3335 23.5333 50.3335 24.9999V41C50.3335 42.4667 49.1335 43.6667 47.6668 43.6667H26.3334C24.8668 43.6667 23.6667 42.4667 23.6667 41V24.9999C23.6667 23.5333 24.8668 22.3333 26.3334 22.3333H30.5601L32.2001 20.5333C32.7068 19.9866 33.4268 19.6666 34.1734 19.6666H39.8268C40.5735 19.6666 41.2935 19.9866 41.7868 20.5333L43.4401 22.3333ZM30.3334 33C30.3334 36.68 33.3201 39.6667 37.0001 39.6667C40.6801 39.6667 43.6668 36.68 43.6668 33C43.6668 29.32 40.6801 26.3333 37.0001 26.3333C33.3201 26.3333 30.3334 29.32 30.3334 33ZM41.0001 33.0001C41.0001 35.2093 39.2092 37.0001 37 37.0001C34.7909 37.0001 33 35.2093 33 33.0001C33 30.791 34.7909 29.0001 37 29.0001C39.2092 29.0001 41.0001 30.791 41.0001 33.0001Z" fill="#FDABFF"/>
<rect x="7" y="3" width="60" height="60" rx="30" stroke="#FDABFF" stroke-width="4"/>
</g>
<defs>
<filter id="filter0_d" x="0" y="0" width="74" height="74" filterUnits="userSpaceOnUse" color-interpolation-filters="sRGB">
<feFlood flood-opacity="0" result="BackgroundImageFix"/>
<feColorMatrix in="SourceAlpha" type="matrix" values="0 0 0 0 0 0 0 0 0 0 0 0 0 0 0 0 0 0 127 0"/>
<feMorphology radius="1" operator="erode" in="SourceAlpha" result="effect1_dropShadow"/>
<feOffset dy="4"/>
<feGaussianBlur stdDeviation="3"/>
<feColorMatrix type="matrix" values="0 0 0 0 0 0 0 0 0 0 0 0 0 0 0 0 0 0 0.1 0"/>
<feBlend mode="normal" in2="BackgroundImageFix" result="effect1_dropShadow"/>
<feBlend mode="normal" in="SourceGraphic" in2="effect1_dropShadow" result="shape"/>
</filter>
</defs>
</svg>
