<svg width="16" height="16" viewBox="0 0 16 16" fill="none" xmlns="http://www.w3.org/2000/svg">
<path d="M8.00004 1.33331C4.32004 1.33331 1.33337 4.31998 1.33337 7.99998C1.33337 11.68 4.32004 14.6666 8.00004 14.6666C11.68 14.6666 14.6667 11.68 14.6667 7.99998C14.6667 4.31998 11.68 1.33331 8.00004 1.33331ZM5.33337 11.6666C4.41337 11.6666 3.66671 10.92 3.66671 9.99998C3.66671 9.07998 4.41337 8.33331 5.33337 8.33331C6.25337 8.33331 7.00004 9.07998 7.00004 9.99998C7.00004 10.92 6.25337 11.6666 5.33337 11.6666ZM6.33337 5.33331C6.33337 4.41331 7.08004 3.66665 8.00004 3.66665C8.92004 3.66665 9.66671 4.41331 9.66671 5.33331C9.66671 6.25331 8.92004 6.99998 8.00004 6.99998C7.08004 6.99998 6.33337 6.25331 6.33337 5.33331ZM10.6667 11.6666C9.74671 11.6666 9.00004 10.92 9.00004 9.99998C9.00004 9.07998 9.74671 8.33331 10.6667 8.33331C11.5867 8.33331 12.3334 9.07998 12.3334 9.99998C12.3334 10.92 11.5867 11.6666 10.6667 11.6666Z" fill="#18181B"/>
</svg>
