<svg width="180" height="59" viewBox="0 0 180 59" fill="none" xmlns="http://www.w3.org/2000/svg">
<path fill-rule="evenodd" clip-rule="evenodd" d="M0 2.25026V47.2554C0 48.4982 1.00748 49.5057 2.25026 49.5057H18.5646C19.186 49.5057 19.6898 49.002 19.6898 48.3806V28.6908C19.6898 21.3775 29.2534 21.3775 29.2534 28.6908V48.3806C29.2534 49.002 29.7571 49.5057 30.3785 49.5057H46.6929C47.9357 49.5057 48.9431 48.4982 48.9431 47.2554V28.6908C48.9431 1.6775 23.0114 6.53865 18.2662 19.4504C18.0937 19.9197 17.6583 20.2523 17.1582 20.2523H16.9622C16.1375 20.2523 15.593 19.3944 15.9442 18.6481L19.6898 10.6887V1.12513C19.6898 0.503739 19.186 0 18.5646 0H2.25026C1.00748 0 0 1.00748 0 2.25026ZM94.511 29.2535C94.511 40.4385 84.94 49.5058 73.1335 49.5058C61.3271 49.5058 51.756 40.4385 51.756 29.2535C51.756 18.0684 61.3271 9.00114 73.1335 9.00114C84.94 9.00114 94.511 18.0684 94.511 29.2535ZM77.634 29.2538C77.634 32.9821 75.619 36.0046 73.1335 36.0046C70.6479 36.0046 68.6329 32.9821 68.6329 29.2538C68.6329 25.5254 70.6479 22.503 73.1335 22.503C75.619 22.503 77.634 25.5254 77.634 29.2538ZM139.516 28.5591C139.516 39.9822 132.968 49.2424 124.89 49.2424C119.147 49.2424 114.177 44.5621 111.783 37.7518H111.333C110.545 37.7518 110.001 38.5409 110.281 39.2773L113.638 48.0934V57.3817C113.638 58.0031 113.134 58.5068 112.513 58.5068H100.137C98.8939 58.5068 97.8864 57.4993 97.8864 56.2565V11.8498C97.8864 10.6071 98.8939 9.59959 100.137 9.59959H111.971C112.769 9.59959 113.313 10.406 113.015 11.1454L110.324 17.8208C110.025 18.5603 110.57 19.3667 111.367 19.3667H111.783C114.177 12.5562 119.147 7.87589 124.89 7.87589C132.968 7.87589 139.516 17.1361 139.516 28.5591ZM123.764 28.5591C123.764 32.3668 121.498 35.4535 118.701 35.4535C115.905 35.4535 113.638 32.3668 113.638 28.5591C113.638 24.7514 115.905 21.6647 118.701 21.6647C121.498 21.6647 123.764 24.7514 123.764 28.5591ZM143.915 36.007H156.613C156.924 36.007 157.169 36.2624 157.227 36.5677C157.793 39.5747 162.871 39.9777 163.336 36.007C163.561 34.0898 160.836 33.6487 157.253 33.0687C151.011 32.0583 142.166 30.6265 141.775 20.2361C142.76 11.3576 154.917 8.3592 160.872 7.9698C167.242 7.4207 179.383 9.03956 179.997 19.3286C180.066 20.4987 179.066 21.4043 177.894 21.4043H165.131C164.82 21.4043 164.576 21.147 164.51 20.8434C163.766 17.4166 156.2 18.0547 157.738 21.2965C157.755 21.3321 157.773 21.368 157.792 21.4043C158.516 22.7786 161.12 23.229 164.281 23.7759C170.525 24.8561 178.944 26.3125 179.353 36.007C179.764 40.8746 178.29 49.4415 160.872 49.4415C146.054 49.4415 142.478 42.6772 141.867 38.1404C141.707 36.9522 142.716 36.007 143.915 36.007Z" fill="black"/>
</svg>
