<svg width="64" height="64" viewBox="0 0 64 64" fill="none" xmlns="http://www.w3.org/2000/svg">
<rect x="2" y="2" width="60" height="60" rx="30" fill="black"/>
<path fill-rule="evenodd" clip-rule="evenodd" d="M19 33C19 30.7909 20.7909 29 23 29H30C32.2091 29 34 30.7909 34 33V40C34 42.2091 32.2091 44 30 44H23C20.7909 44 19 42.2091 19 40V33ZM25 33.5C25 34.3284 24.3284 35 23.5 35C22.6716 35 22 34.3284 22 33.5C22 32.6716 22.6716 32 23.5 32C24.3284 32 25 32.6716 25 33.5ZM23.5 41C24.3284 41 25 40.3284 25 39.5C25 38.6716 24.3284 38 23.5 38C22.6716 38 22 38.6716 22 39.5C22 40.3284 22.6716 41 23.5 41ZM31 33.5C31 34.3284 30.3284 35 29.5 35C28.6716 35 28 34.3284 28 33.5C28 32.6716 28.6716 32 29.5 32C30.3284 32 31 32.6716 31 33.5ZM29.5 41C30.3284 41 31 40.3284 31 39.5C31 38.6716 30.3284 38 29.5 38C28.6716 38 28 38.6716 28 39.5C28 40.3284 28.6716 41 29.5 41Z" fill="#FFE600"/>
<path fill-rule="evenodd" clip-rule="evenodd" d="M28.6764 26.9999C28.6811 26.9898 28.6857 26.9796 28.6905 26.9695L31.6488 20.6254C32.5824 18.6232 34.9623 17.757 36.9645 18.6906L43.3086 21.6489C45.3108 22.5826 46.177 24.9625 45.2434 26.9646L42.2851 33.3088C41.3515 35.3109 38.9715 36.1772 36.9694 35.2435L36.0001 34.7916V32.9999C36.0001 29.6862 33.3138 26.9999 30.0001 26.9999H28.6764ZM39.0519 29.5944C39.8027 29.9445 40.1276 30.837 39.7775 31.5878C39.4274 32.3386 38.5349 32.6634 37.7841 32.3133C37.0333 31.9632 36.7084 31.0707 37.0585 30.3199C37.4087 29.5691 38.3011 29.2443 39.0519 29.5944ZM36.8753 23.6142C37.2254 22.8634 36.9006 21.9709 36.1498 21.6208C35.399 21.2707 34.5065 21.5956 34.1564 22.3464C33.8063 23.0972 34.1311 23.9897 34.8819 24.3398C35.6327 24.6899 36.5252 24.365 36.8753 23.6142ZM37.6009 25.6076C38.3517 25.9577 38.6765 26.8502 38.3264 27.601C37.9763 28.3518 37.0838 28.6766 36.333 28.3265C35.5822 27.9764 35.2574 27.084 35.6075 26.3331C35.9576 25.5823 36.8501 25.2575 37.6009 25.6076Z" fill="#FFE600"/>
<rect x="2" y="2" width="60" height="60" rx="30" stroke="#FFE600" stroke-width="4"/>
</svg>
