<svg width="64" height="64" viewBox="0 0 64 64" fill="none" xmlns="http://www.w3.org/2000/svg">
<rect x="2" y="2" width="60" height="60" rx="30" fill="black"/>
<path d="M36.6668 34.6668H35.6135L35.2401 34.3068C36.8402 32.4401 37.6668 29.8935 37.2135 27.1868C36.5868 23.4801 33.4935 20.5201 29.7601 20.0668C24.1201 19.3734 19.3734 24.1201 20.0668 29.7601C20.5201 33.4935 23.4801 36.5868 27.1868 37.2135C29.8935 37.6668 32.4401 36.8402 34.3068 35.2401L34.6668 35.6135V36.6668L40.3335 42.3335C40.8802 42.8802 41.7735 42.8802 42.3202 42.3335C42.8668 41.7868 42.8668 40.8935 42.3202 40.3468L36.6668 34.6668ZM28.6668 34.6668C25.3468 34.6668 22.6668 31.9868 22.6668 28.6668C22.6668 25.3468 25.3468 22.6668 28.6668 22.6668C31.9868 22.6668 34.6668 25.3468 34.6668 28.6668C34.6668 31.9868 31.9868 34.6668 28.6668 34.6668Z" fill="#91FFD7"/>
<rect x="2" y="2" width="60" height="60" rx="30" stroke="#91FFD7" stroke-width="4"/>
</svg>
