<svg width="32" height="32" viewBox="0 0 32 32" fill="none" xmlns="http://www.w3.org/2000/svg">
<g clip-path="url(#clip0)">
<rect width="32" height="32" rx="16" transform="matrix(1 0 0 -1 0 32)" fill="#91FFD7"/>
<path d="M0 32V13.0654C0.736 9.20936 3.376 6.92338 8.176 7.15163C14.176 7.43694 16.72 17.1117 23.152 15.8148C28.2976 14.7773 31.1947 19.204 32 21.5471V32H0Z" fill="#FF70A3"/>
<path d="M32 0.0320053L32 12.4759C31.264 15.0102 26.144 22.608 20.944 18.896C15.744 15.184 23.648 9.08801 20.944 6.98097C18.24 4.87393 15.8077 7.83316 8.848 10.669C4.16503 12.5771 0.805331 8.44159 -3.21413e-06 6.90173L-3.8147e-06 0.0320081L32 0.0320053Z" fill="#FFE600"/>
<path d="M0 13.0654C0.736 9.20936 3.376 6.92338 8.176 7.15163C11.2896 7.29969 13.4725 9.97628 15.7511 12.336L0 13.0654Z" fill="#FF70A3"/>
<path d="M0 32V20.32C0.736 17.9413 3.376 16.5312 8.176 16.672C14.176 16.848 11.904 26.176 23.152 22.016C29.9 19.5203 31.1947 24.1067 32 25.552V32H0Z" fill="#FDABFF"/>
</g>
<defs>
<clipPath id="clip0">
<rect width="32" height="32" rx="16" transform="matrix(1 0 0 -1 0 32)" fill="white"/>
</clipPath>
</defs>
</svg>
