<svg width="64" height="64" viewBox="0 0 64 64" fill="none" xmlns="http://www.w3.org/2000/svg">
<rect x="2" y="2" width="60" height="60" rx="30" fill="black"/>
<path d="M39.9999 33.3333H33.3332V39.9999C33.3332 40.7333 32.7332 41.3333 31.9999 41.3333C31.2665 41.3333 30.6665 40.7333 30.6665 39.9999V33.3333H23.9998C23.2665 33.3333 22.6665 32.7333 22.6665 31.9999C22.6665 31.2666 23.2665 30.6666 23.9998 30.6666H30.6665V23.9999C30.6665 23.2666 31.2665 22.6666 31.9999 22.6666C32.7332 22.6666 33.3332 23.2666 33.3332 23.9999V30.6666H39.9999C40.7332 30.6666 41.3332 31.2666 41.3332 31.9999C41.3332 32.7333 40.7332 33.3333 39.9999 33.3333Z" fill="#FDABFF"/>
<rect x="2" y="2" width="60" height="60" rx="30" stroke="#FDABFF" stroke-width="4"/>
</svg>
