<svg width="129" height="32" viewBox="0 0 129 32" fill="none" xmlns="http://www.w3.org/2000/svg">
<g clip-path="url(#clip0)">
<rect width="32" height="32" rx="16" transform="matrix(1 0 0 -1 0 32)" fill="#91FFD7"/>
<path d="M0 32V13.0654C0.736 9.20936 3.376 6.92338 8.176 7.15163C14.176 7.43694 16.72 17.1117 23.152 15.8148C28.2976 14.7773 31.1947 19.204 32 21.5471V32H0Z" fill="#FF70A3"/>
<path d="M32 0.0320053L32 12.4759C31.264 15.0102 26.144 22.608 20.944 18.896C15.744 15.184 23.648 9.08801 20.944 6.98097C18.24 4.87393 15.8077 7.83316 8.848 10.669C4.16503 12.5771 0.805331 8.44159 -3.21413e-06 6.90173L-3.8147e-06 0.0320081L32 0.0320053Z" fill="#FFE600"/>
<path d="M0 13.0654C0.736 9.20936 3.376 6.92338 8.176 7.15163C11.2896 7.29969 13.4725 9.97628 15.7511 12.336L0 13.0654Z" fill="#FF70A3"/>
<path d="M0 32V20.32C0.736 17.9413 3.376 16.5312 8.176 16.672C14.176 16.848 11.904 26.176 23.152 22.016C29.9 19.5203 31.1947 24.1067 32 25.552V32H0Z" fill="#FDABFF"/>
</g>
<path fill-rule="evenodd" clip-rule="evenodd" d="M42 5.07692V26.6154C42 27.2101 42.4822 27.6923 43.0769 27.6923H50.8846C51.182 27.6923 51.4231 27.4512 51.4231 27.1538V17.7308C51.4231 14.2308 56 14.2308 56 17.7308V27.1538C56 27.4512 56.2411 27.6923 56.5385 27.6923H64.3461C64.9409 27.6923 65.4231 27.2101 65.4231 26.6154V17.7308C65.4231 4.80282 53.0127 7.12925 50.7418 13.3085C50.6592 13.5331 50.4508 13.6923 50.2115 13.6923H50.1177C49.723 13.6923 49.4625 13.2817 49.6305 12.9246L51.4231 9.11538V4.53846C51.4231 4.24108 51.182 4 50.8846 4H43.0769C42.4822 4 42 4.48215 42 5.07692ZM87.2307 18C87.2307 23.3529 82.6503 27.6923 77 27.6923C71.3497 27.6923 66.7692 23.3529 66.7692 18C66.7692 12.6471 71.3497 8.30771 77 8.30771C82.6503 8.30771 87.2307 12.6471 87.2307 18ZM79.1539 18.0001C79.1539 19.7844 78.1896 21.2309 77.0001 21.2309C75.8105 21.2309 74.8462 19.7844 74.8462 18.0001C74.8462 16.2158 75.8105 14.7694 77.0001 14.7694C78.1896 14.7694 79.1539 16.2158 79.1539 18.0001ZM108.769 17.6679C108.769 23.1347 105.635 27.5664 101.769 27.5664C99.0208 27.5664 96.6423 25.3265 95.4969 22.0672H95.2812C94.9041 22.0672 94.6438 22.4449 94.778 22.7973L96.3846 27.0165V31.4617C96.3846 31.759 96.1435 32.0001 95.8461 32.0001H89.9231C89.3283 32.0001 88.8462 31.518 88.8462 30.9232V9.67117C88.8462 9.0764 89.3283 8.59425 89.9231 8.59425H95.5869C95.9685 8.59425 96.229 8.98017 96.0863 9.33406L94.7983 12.5287C94.6556 12.8826 94.9161 13.2685 95.2977 13.2685H95.4969C96.6423 10.0092 99.0208 7.76936 101.769 7.76936C105.635 7.76936 108.769 12.2011 108.769 17.6679ZM101.231 17.6681C101.231 19.4903 100.146 20.9676 98.808 20.9676C97.4697 20.9676 96.3849 19.4903 96.3849 17.6681C96.3849 15.8458 97.4697 14.3686 98.808 14.3686C100.146 14.3686 101.231 15.8458 101.231 17.6681ZM110.874 21.2322H116.951C117.1 21.2322 117.218 21.3544 117.245 21.5005C117.516 22.9395 119.946 23.1324 120.169 21.2322C120.276 20.3146 118.972 20.1035 117.257 19.8259C114.27 19.3424 110.037 18.6572 109.85 13.6845C110.322 9.43552 116.14 8.00054 118.99 7.81418C122.038 7.55139 127.848 8.32614 128.142 13.2502C128.176 13.8102 127.697 14.2436 127.136 14.2436H121.028C120.879 14.2436 120.762 14.1205 120.731 13.9752C120.375 12.3352 116.754 12.6406 117.49 14.192C117.498 14.2091 117.506 14.2263 117.515 14.2436C117.862 14.9013 119.108 15.1169 120.621 15.3786C123.609 15.8956 127.638 16.5926 127.834 21.2322C128.031 23.5617 127.325 27.6616 118.99 27.6616C111.898 27.6616 110.187 24.4243 109.894 22.2531C109.818 21.6845 110.3 21.2322 110.874 21.2322Z" fill="black"/>
<defs>
<clipPath id="clip0">
<rect width="32" height="32" rx="16" transform="matrix(1 0 0 -1 0 32)" fill="white"/>
</clipPath>
</defs>
</svg>
