<svg width="16" height="16" viewBox="0 0 16 16" fill="none" xmlns="http://www.w3.org/2000/svg">
<path d="M7.43329 2.26678L4.95329 6.32011C4.67996 6.76011 4.99996 7.33344 5.51996 7.33344H10.4733C10.9933 7.33344 11.3133 6.76011 11.04 6.32011L8.56663 2.26678C8.30663 1.84011 7.69329 1.84011 7.43329 2.26678Z" fill="#18181B"/>
<path d="M11.6666 14.6665C13.3235 14.6665 14.6666 13.3234 14.6666 11.6665C14.6666 10.0096 13.3235 8.6665 11.6666 8.6665C10.0098 8.6665 8.66663 10.0096 8.66663 11.6665C8.66663 13.3234 10.0098 14.6665 11.6666 14.6665Z" fill="#18181B"/>
<path d="M2.66667 14.3333H6.66667C7.03333 14.3333 7.33333 14.0333 7.33333 13.6667V9.66667C7.33333 9.3 7.03333 9 6.66667 9H2.66667C2.3 9 2 9.3 2 9.66667V13.6667C2 14.0333 2.3 14.3333 2.66667 14.3333Z" fill="#18181B"/>
</svg>
