<svg width="375" height="64" viewBox="0 0 375 64" fill="none" xmlns="http://www.w3.org/2000/svg">
<g clip-path="url(#clip0)">
<path d="M375 0H0V64H375V0Z" fill="#91FFD7"/>
<path d="M0 -149V72.8894C8.625 118.078 39.5625 144.867 95.8125 142.192C166.125 138.848 195.938 25.4719 271.312 40.6698C331.612 52.8282 365.562 0.952654 375 -26.5049V-149H0Z" fill="#FF70A3"/>
<path d="M0 -79V57.875C8.625 85.75 39.5625 102.275 95.8125 100.625C166.125 98.5625 139.5 -10.75 271.312 38C350.391 67.2467 365.562 13.5 375 -3.4375V-79H0Z" fill="#FDABFF"/>
<path d="M375 196.131V50.3038C366.375 20.6057 276.75 -54.5079 241.875 -21.6866C217.195 1.54012 277.125 90.0059 245.437 114.698C213.75 139.39 185.246 104.711 103.687 71.4787C48.809 49.1176 9.43748 97.581 -2.34796e-05 115.626L-3.05176e-05 196.131H375Z" fill="#FFE600"/>
</g>
<defs>
<clipPath id="clip0">
<rect width="375" height="64" fill="white"/>
</clipPath>
</defs>
</svg>
