<svg width="1000" height="1000" viewBox="0 0 1000 1000" fill="none" xmlns="http://www.w3.org/2000/svg">
<g clip-path="url(#clip0)">
<rect width="1000" height="1000" transform="matrix(1 0 0 -1 0 1000)" fill="#91FFD7"/>
<path d="M0 1000V408.295C23 287.792 105.5 216.356 255.5 223.488C443 232.405 522.5 534.742 723.5 494.214C884.3 461.792 974.833 600.126 1000 673.346V1000H0Z" fill="#FF70A3"/>
<path d="M1000 1L1000 389.872C977 469.067 817 706.5 654.5 590.5C492 474.5 739 284 654.5 218.155C570 152.31 493.991 244.786 276.5 333.406C130.157 393.035 25.1666 263.8 -4.22673e-05 215.679L-6.10352e-05 1.00009L1000 1Z" fill="#FFE600"/>
<path d="M0 408.295C23 287.792 105.5 216.356 255.5 223.488C352.8 228.115 421.017 311.759 492.222 385.5L0 408.295Z" fill="#FF70A3"/>
<path d="M0 1000V635C23 560.667 105.5 516.6 255.5 521C443 526.5 372 818 723.5 688C934.376 610.009 974.833 753.333 1000 798.5V1000H0Z" fill="#FDABFF"/>
</g>
<defs>
<clipPath id="clip0">
<rect width="1000" height="1000" fill="white" transform="matrix(1 0 0 -1 0 1000)"/>
</clipPath>
</defs>
</svg>
